<?xml version="1.0" encoding="UTF-8"?><svg id="Layer_2" xmlns="http://www.w3.org/2000/svg" xmlns:xlink="http://www.w3.org/1999/xlink" viewBox="0 0 220.56 220.32"><defs><style>.cls-1{fill:#fff;}.cls-2{fill:#231f20;}.cls-3{fill:#2e2d2c;}.cls-4{fill:#00c0e7;filter:url(#drop-shadow-1);}.cls-5{fill:none;stroke:#2e2d2c;stroke-linecap:round;stroke-linejoin:round;stroke-width:3.9px;}.cls-6{fill:#1a1a1a;font-family:Merriweather-Bold, Merriweather;font-size:18.32px;}</style><filter id="drop-shadow-1" filterUnits="userSpaceOnUse"><feOffset dx="2" dy="2"/><feGaussianBlur result="blur" stdDeviation="3.33"/><feFlood flood-color="#000" flood-opacity=".25"/><feComposite in2="blur" operator="in"/><feComposite in="SourceGraphic"/></filter></defs><g id="Layer_10_copy"><g><circle class="cls-4" cx="108.18" cy="108.02" r="100"/><g><g><rect class="cls-5" x="47.39" y="50.37" width="121.58" height="97.08" rx="8.84" ry="8.84"/><line class="cls-5" x1="47.39" y1="69.29" x2="168.96" y2="69.29"/></g><path class="cls-3" d="M69.64,60.12c0,1.94-1.57,3.51-3.51,3.51s-3.51-1.57-3.51-3.51,1.57-3.51,3.51-3.51,3.51,1.57,3.51,3.51Z"/><path class="cls-3" d="M85.4,60.12c0,1.94-1.57,3.51-3.51,3.51s-3.51-1.57-3.51-3.51,1.57-3.51,3.51-3.51,3.51,1.57,3.51,3.51Z"/></g><g><g><path class="cls-1" d="M132.52,149.66h-.1c-2.81,0-5.08,2.27-5.08,5.08v-4.29c0-2.81-2.27-5.08-5.08-5.08h-.1c-2.81,0-5.08,2.27-5.08,5.08v-3.14c0-2.81-2.27-5.08-5.08-5.08h-.1c-2.81,0-5.08,2.27-5.08,5.08v-19.63c0-2.81-2.27-5.08-5.08-5.08h-.1c-2.81,0-5.08,2.27-5.08,5.08v36.85c-.11,.7-.96,1.05-1.53,.57l-8.7-7.26c-2.62-2.23-7.78-.37-7.56,3.89,.04,.68,.22,1.34,.52,1.95,3.74,7.81,9.9,16.21,17.4,25.25,.33,.4,.87,1.02,1.4,1.61,.92,1.03,1.43,2.36,1.43,3.75v.06c0,2.3,1.86,4.16,4.16,4.16h22.77c2.3,0,4.16-1.86,4.16-4.16v-.81c0-1.23,.4-2.44,1.15-3.41,1.83-2.35,3.19-5.1,3.93-8.14,1.14-4.72,1.79-9.26,1.79-12.18l.08-2.54h.05v-12.53c0-2.81-2.27-5.08-5.08-5.08Zm-25.71,6.01v.53h-.62l.62-.53Z"/><path class="cls-2" d="M139.22,154.74c0-3.7-3.01-6.7-6.7-6.7h-.1c-1.32,0-2.56,.39-3.6,1.05-.63-3.05-3.33-5.35-6.56-5.35h-.1c-1.44,0-2.78,.46-3.88,1.24-.95-2.55-3.41-4.38-6.29-4.38h-.1c-1.27,0-2.45,.35-3.46,.96v-13.89c0-3.7-3.01-6.7-6.7-6.7h-.1c-3.7,0-6.7,3.01-6.7,6.7v35.23l-7.57-6.31c-1.77-1.5-4.5-1.75-6.78-.62-2.29,1.14-3.58,3.32-3.44,5.84,.05,.87,.27,1.73,.67,2.57,3.4,7.1,8.83,14.99,17.61,25.58,.38,.46,.99,1.16,1.45,1.66,.66,.73,1.02,1.68,1.02,2.67v.06c0,3.19,2.59,5.78,5.78,5.78h22.77c3.19,0,5.78-2.59,5.78-5.78v-.81c0-.89,.29-1.75,.81-2.42,2.03-2.6,3.45-5.55,4.22-8.76,1.15-4.75,1.83-9.43,1.84-12.54l.07-2.12c.04-.14,.06-.28,.06-.43v-12.55Zm-3.37,15.08c0,2.87-.65,7.28-1.75,11.8-.67,2.76-1.89,5.29-3.63,7.53-.96,1.24-1.5,2.8-1.5,4.41v.81c0,1.4-1.14,2.54-2.54,2.54h-22.77c-1.4,0-2.54-1.14-2.54-2.54v-.06c0-1.78-.65-3.5-1.84-4.83-.61-.68-1.09-1.24-1.36-1.57-8.61-10.38-13.91-18.07-17.19-24.92-.21-.45-.34-.9-.36-1.34-.09-1.71,1.12-2.5,1.65-2.76,1.12-.56,2.46-.48,3.25,.2l8.7,7.26c.78,.65,1.82,.78,2.74,.35,.91-.43,1.48-1.33,1.47-2.34v-36.67c-.01-1.91,1.54-3.46,3.45-3.46h.1c1.91,0,3.46,1.55,3.46,3.46v30.51c0,.9,.73,1.62,1.62,1.62s1.62-.73,1.62-1.62v-10.89c0-1.91,1.55-3.46,3.46-3.46h.1c1.91,0,3.46,1.55,3.46,3.46v14.02c0,.9,.73,1.62,1.62,1.62s1.62-.73,1.62-1.62v-10.89c0-1.91,1.55-3.46,3.46-3.46h.1c1.91,0,3.46,1.55,3.46,3.46v4.28l-.1,9.57c0,.51,.22,.96,.59,1.26,.29,.28,.69,.46,1.13,.46,.9,0,1.62-.73,1.62-1.62v-9.65c0-1.91,1.55-3.46,3.46-3.46h.1c1.91,0,3.46,1.55,3.46,3.46v10.98l-.12,4.05v.05Z"/></g><g><g><rect x="100.48" y="106.26" width="2.15" height="11.42" rx="1.06" ry="1.06"/><path d="M101.57,118.21h-.03c-.87,0-1.58-.71-1.58-1.58v-9.3c0-.87,.71-1.58,1.58-1.58h.03c.87,0,1.58,.71,1.58,1.58v9.3c0,.87-.71,1.58-1.58,1.58Zm-.03-11.42c-.29,0-.53,.24-.53,.53v9.3c0,.29,.24,.53,.53,.53h.03c.29,0,.53-.24,.53-.53v-9.3c0-.29-.24-.53-.53-.53h-.03Z"/></g><g><rect x="107.16" y="115.59" width="11.42" height="2.15" rx="1.06" ry="1.06" transform="translate(-49.43 113.98) rotate(-45)"/><path d="M109.59,121.55c-.42,0-.82-.16-1.12-.46l-.02-.02c-.62-.62-.62-1.62,0-2.24l6.58-6.58c.3-.3,.7-.46,1.12-.46s.82,.16,1.12,.46l.02,.02c.62,.62,.62,1.62,0,2.24l-6.58,6.58c-.3,.3-.7,.46-1.12,.46Zm6.56-8.72c-.14,0-.28,.06-.38,.16l-6.58,6.58c-.21,.21-.21,.54,0,.75l.02,.02c.2,.2,.55,.2,.75,0l6.58-6.58c.21-.21,.21-.54,0-.75l-.02-.02c-.1-.1-.23-.16-.38-.16Z"/></g><g><rect x="111.85" y="126.9" width="11.42" height="2.15" rx="1.06" ry="1.06"/><path d="M122.21,129.58h-9.3c-.87,0-1.58-.71-1.58-1.58v-.03c0-.87,.71-1.58,1.58-1.58h9.3c.87,0,1.58,.71,1.58,1.58v.03c0,.87-.71,1.58-1.58,1.58Zm-9.3-2.15c-.29,0-.53,.24-.53,.53v.03c0,.29,.24,.53,.53,.53h9.3c.29,0,.53-.24,.53-.53v-.03c0-.29-.24-.53-.53-.53h-9.3Z"/></g><g><rect x="89.17" y="110.95" width="2.15" height="11.42" rx="1.06" ry="1.06" transform="translate(-56.06 97.98) rotate(-45)"/><path d="M93.52,121.55c-.42,0-.82-.16-1.12-.46l-6.58-6.58c-.62-.62-.62-1.62,0-2.24l.02-.02c.3-.3,.7-.46,1.12-.46s.82,.16,1.12,.46l6.58,6.58c.62,.62,.62,1.62,0,2.24l-.02,.02c-.3,.3-.7,.46-1.12,.46Zm-6.56-8.72c-.14,0-.28,.06-.38,.16l-.02,.02c-.21,.21-.21,.54,0,.75l6.58,6.58c.2,.2,.55,.2,.75,0l.02-.02c.21-.21,.21-.54,0-.75l-6.58-6.58c-.1-.1-.23-.16-.38-.16Z"/></g><g><rect x="79.84" y="126.9" width="11.42" height="2.15" rx="1.06" ry="1.06"/><path d="M90.2,129.58h-9.3c-.87,0-1.58-.71-1.58-1.58v-.03c0-.87,.71-1.58,1.58-1.58h9.3c.87,0,1.58,.71,1.58,1.58v.03c0,.87-.71,1.58-1.58,1.58Zm-9.3-2.15c-.29,0-.53,.24-.53,.53v.03c0,.29,.24,.53,.53,.53h9.3c.29,0,.53-.24,.53-.53v-.03c0-.29-.24-.53-.53-.53h-9.3Z"/></g></g></g><text class="cls-6" transform="translate(54.49 100.26)"><tspan x="0" y="0">Go.USA.gov</tspan></text></g></g></svg>