<?xml version="1.0" encoding="UTF-8"?><svg id="Layer_2" xmlns="http://www.w3.org/2000/svg" xmlns:xlink="http://www.w3.org/1999/xlink" viewBox="0 0 220.32 220.32"><defs><style>.cls-1{fill:#1a1a1a;}.cls-2{fill:#fff;stroke-width:2.62px;}.cls-2,.cls-3{stroke-linecap:round;stroke-linejoin:round;}.cls-2,.cls-3,.cls-4{stroke:#1a1a1a;}.cls-5{fill:#00c0e7;filter:url(#drop-shadow-1);}.cls-3{stroke-width:3.87px;}.cls-3,.cls-4{fill:none;}.cls-4{stroke-miterlimit:10;stroke-width:3.58px;}</style><filter id="drop-shadow-1" filterUnits="userSpaceOnUse"><feOffset dx="2" dy="2"/><feGaussianBlur result="blur" stdDeviation="3.33"/><feFlood flood-color="#000" flood-opacity=".25"/><feComposite in2="blur" operator="in"/><feComposite in="SourceGraphic"/></filter></defs><g id="Layer_12_copy"><g><g><g><circle class="cls-5" cx="108.04" cy="108.08" r="100"/><g><g><rect class="cls-3" x="47.61" y="51.14" width="120.69" height="96.37" rx="8.78" ry="8.78"/><line class="cls-3" x1="47.61" y1="69.92" x2="168.3" y2="69.92"/></g><path class="cls-1" d="M69.7,60.81c0,1.92-1.56,3.48-3.48,3.48s-3.48-1.56-3.48-3.48,1.56-3.48,3.48-3.48,3.48,1.56,3.48,3.48Z"/><path class="cls-1" d="M85.35,60.81c0,1.92-1.56,3.48-3.48,3.48s-3.48-1.56-3.48-3.48,1.56-3.48,3.48-3.48,3.48,1.56,3.48,3.48Z"/></g></g><g><path class="cls-2" d="M165.74,150.91c1.92-4.59,1.92-9.8,0-14.39-.91-2.16-2.23-4.2-3.99-5.95-1.76-1.76-3.79-3.08-5.95-3.99l-2.22,2.22c-2.74,2.74-2.74,7.2,0,9.94s2.74,7.2,0,9.94l-2.22,2.22-11.31,11.31c-2.74,2.74-7.2,2.74-9.94,0s-2.74-7.2,0-9.94l11.31-11.31c-1.92-4.59-1.92-9.8,0-14.39-2.16,.91-4.2,2.23-5.95,3.99l-13.54,13.54c-7.25,7.25-7.25,19.05,0,26.3,7.25,7.25,19.05,7.25,26.3,0l13.54-13.54c1.76-1.76,3.08-3.79,3.99-5.95Z"/><path class="cls-2" d="M185.23,107.08c-7.25-7.25-19.05-7.25-26.3,0l-13.54,13.54c-1.76,1.76-3.08,3.79-3.99,5.95-1.92,4.59-1.92,9.8,0,14.39,.91,2.16,2.23,4.2,3.99,5.95,1.76,1.76,3.79,3.08,5.95,3.99l2.22-2.22c2.74-2.74,2.74-7.2,0-9.94s-2.74-7.2,0-9.94l2.22-2.22,11.31-11.31c2.74-2.74,7.2-2.74,9.94,0s2.74,7.2,0,9.94l-11.31,11.31c1.92,4.59,1.92,9.8,0,14.39,2.16-.91,4.2-2.23,5.95-3.99l13.54-13.54c7.25-7.25,7.25-19.05,0-26.3Z"/></g></g><g><path class="cls-4" d="M129.51,108.26c0,11.9-9.65,21.55-21.55,21.55s-21.55-9.65-21.55-21.55,9.65-21.55,21.55-21.55,21.55,9.65,21.55,21.55Z"/><path class="cls-4" d="M115.98,108.26c0,11.9-3.59,21.55-8.03,21.55s-8.03-9.65-8.03-21.55,3.6-21.55,8.03-21.55,8.03,9.65,8.03,21.55Z"/><g><line class="cls-4" x1="87.7" y1="115.44" x2="128.21" y2="115.44"/><line class="cls-4" x1="87.7" y1="101.08" x2="128.21" y2="101.08"/></g></g></g></g></svg>